<svg id="Capa_1" enable-background="new 0 0 496.998 496.998" height="512" viewBox="0 0 496.998 496.998" width="512" xmlns="http://www.w3.org/2000/svg"><g><path d="m107.619 317.528c-3.904-3.187-7.991-5.981-12.206-8.38l-51.471 23.802-13.019 55.193c3.193 3.65 6.749 7.094 10.653 10.282 28.348 23.142 66.191 25.509 92.517 8.129 11.766-29.28 1.874-65.884-26.474-89.026z" fill="#4f4c5f"/><path d="m36.81 300.053c-15.143 3.634-26.003 16.937-26.529 32.501-.654 19.329 6.469 39.44 20.642 55.59 2.613-11.255 11.212-20.376 22.615-23.496 6.556-1.78 12.182-5.556 16.282-10.578 4.093-5.014 6.66-11.274 7.099-18.062.447-6.781 3.014-13.041 7.107-18.055 3.037-3.721 6.909-6.761 11.387-8.805-18.661-10.655-39.792-13.608-58.603-9.095z" fill="#eaeaea"/><path d="m400.905 334.269h.01c13.452 36.779 18.495 90.045-29.174 140.808-13.181 14.045-31.646 21.921-50.894 21.921h-117.36c-19.249 0-37.714-7.876-50.894-21.921-47.68-50.774-42.616-104.049-29.164-140.828v.02z" fill="#6a647f"/><g fill="#5c586f"><path d="m262.166 423.696c-4.142 0-7.5 3.357-7.5 7.5v65.802h15v-65.802c0-4.143-3.358-7.5-7.5-7.5z"/><path d="m198.425 423.763c-4.103-.555-7.882 2.323-8.437 6.428-.168 1.246-3.634 29.817 22.874 66.807h16.824c.001-1.6-.5-3.212-1.553-4.577-13.667-17.729-19.264-33.188-21.554-43.034-2.441-10.498-1.745-17.023-1.721-17.237.526-4.086-2.345-7.834-6.433-8.387z"/><path d="m294.646 496.998h16.824c26.508-36.99 23.042-65.562 22.874-66.807-.555-4.104-4.329-6.982-8.437-6.428-4.105.555-6.983 4.332-6.428 8.437.035.255 3.146 25.938-23.281 60.221-1.052 1.365-1.553 2.977-1.552 4.577z"/><path d="m148.234 396.319c0-22.012 4.466-42.98 12.54-62.05h-37.347v-.02c-13.452 36.779-18.515 90.055 29.164 140.828 7.946 8.467 17.82 14.673 28.621 18.282-20.675-26.869-32.978-60.515-32.978-97.04z"/></g><path d="m400.915 334.269h-.01c-43.39 52.833-69.028 33.283-118.636 58.57-12.608 6.43-27.597 6.43-40.205 0-49.608-25.286-75.246-5.736-118.636-58.57v-.02c10.398-28.421 25.809-46.996 25.809-46.996h225.86c-.001 0 15.42 18.585 25.818 47.016z" fill="#e2e2e2"/><path d="m163.396 41.326c-11.972-5.048-25.621-7.717-40.12-7.717-47.333 0-85.703 28.324-85.703 75.657s20.287 95.749 67.62 95.749c1.519 0 3.048-.052 4.584-.15z" fill="#4f4c5f"/><path d="m360.936 41.326c11.972-5.048 25.621-7.717 40.12-7.717 47.333 0 85.703 28.324 85.703 75.657s-20.287 95.749-67.62 95.749c-1.519 0-3.048-.052-4.584-.15z" fill="#4f4c5f"/><path d="m414.497 170.505c4.3 43.108-7.083 75.789-25.307 100.432h-254.05c-18.224-24.643-29.606-57.324-25.306-100.432z" fill="#e8a882"/><path d="m136.654 195.608c0-8.512.572-16.889 1.662-25.103h-28.482c-4.3 43.108 7.083 75.789 25.306 100.432h17.129c-10.037-23.082-15.615-48.552-15.615-75.329z" fill="#e3986d"/><path d="m414.497 170.505c-36.428 27.527-91.15 45.037-152.331 45.037s-115.904-17.511-152.331-45.037c.362-3.637.834-7.344 1.427-11.121 26.511-169.862 150.904-159.253 150.904-159.253s124.393-10.609 150.905 159.253c.592 3.777 1.065 7.484 1.426 11.121z" fill="#6a647f"/><path d="m191.448 287.252h-42.212s-15.411 18.576-25.809 46.997v.02c10.381 12.641 19.745 21.131 28.665 27.09 6.335-28.281 20.189-53.717 39.356-74.107z" fill="#d4d4d2"/><path d="m389.191 270.938c-23.237 31.445-57.595 49.829-84.72 60.157-27.276 10.388-57.334 10.388-84.609 0-27.125-10.328-61.483-28.712-84.72-60.157 7.083-55.877 29.857-59.413 63.623-88.899 27.667-24.151 38.216-61.895 42.144-84.037.924-5.164 3.617-9.624 7.384-12.799 3.777-3.175 8.63-5.063 13.874-5.063 10.488 0 19.419 7.545 21.258 17.862 3.928 22.142 14.477 59.886 42.144 84.037 33.764 29.485 56.539 33.021 63.622 88.899z" fill="#eaeaea"/><path d="m327.452 91.861 15.158-4.423c8.737-2.549 17.881 2.379 20.582 11.029 2.785 8.92-2.692 18.484-11.663 21.102l-14.737 4.3c-8.839 2.579-18.094-2.496-20.674-11.334-2.58-8.839 2.495-18.096 11.334-20.674z" fill="#e8a882"/><path d="m281.425 176.429c0 6.913-8.538 12.517-19.069 12.517-10.532 0-19.069-5.604-19.069-12.517 0-10.881 38.138-10.881 38.138 0z" fill="#423e4f"/><g fill="#423e4f"><path d="m176.852 139.643c-4.142 0-7.5 3.358-7.5 7.5v16.394c0 4.142 3.358 7.5 7.5 7.5s7.5-3.358 7.5-7.5v-16.394c0-4.143-3.357-7.5-7.5-7.5z"/><path d="m347.48 139.643c-4.142 0-7.5 3.358-7.5 7.5v16.394c0 4.142 3.358 7.5 7.5 7.5s7.5-3.358 7.5-7.5v-16.394c0-4.143-3.358-7.5-7.5-7.5z"/><path d="m294.676 195.225c-4.142 0-7.5 3.358-7.5 7.5 0 4.771-3.882 8.653-8.653 8.653s-8.653-3.881-8.653-8.653c0-4.142-3.358-7.5-7.5-7.5s-7.5 3.358-7.5 7.5c0 4.771-3.882 8.653-8.653 8.653s-8.653-3.881-8.653-8.653c0-4.142-3.358-7.5-7.5-7.5s-7.5 3.358-7.5 7.5c0 13.042 10.611 23.653 23.653 23.653 6.241 0 11.922-2.434 16.153-6.397 4.231 3.963 9.912 6.397 16.153 6.397 13.042 0 23.653-10.611 23.653-23.653 0-4.142-3.358-7.5-7.5-7.5z"/></g><path d="m142.085 240.723c-3.046 8.08-5.379 17.868-6.944 30.214 10.752 14.55 23.886 26.298 37.581 35.751-14.184-19.505-24.727-41.824-30.637-65.965z" fill="#e2e2e2"/><path d="m307.926 7.366c-25.713-8.942-45.76-7.235-45.76-7.235s-124.393-10.609-150.905 159.253c-.593 3.777-1.065 7.484-1.427 11.121 8.133 6.146 17.184 11.788 27.009 16.852 4.067-94.653 77.709-171.265 171.083-179.991z" fill="#5c586f"/><path d="m196.88 91.861-15.158-4.423c-8.737-2.549-17.881 2.379-20.582 11.029-2.785 8.92 2.692 18.484 11.663 21.102l14.737 4.3c8.839 2.579 18.094-2.496 20.674-11.334 2.58-8.839-2.495-18.096-11.334-20.674z" fill="#e8a882"/></g></svg>