<svg id="Capa_1" enable-background="new 0 0 497 497" height="512" viewBox="0 0 497 497" width="512" xmlns="http://www.w3.org/2000/svg"><g><path d="m363.068 347.974h-229.136s-43.147 50.422-11.533 117.947c8.868 18.941 27.86 31.08 48.774 31.08h154.652c20.914 0 39.906-12.139 48.774-31.08 31.616-67.526-11.531-117.947-11.531-117.947z" fill="#f5d5c4"/><g fill="#f1c6ad"><path d="m248.5 437.562c-4.143 0-7.5 3.357-7.5 7.5v51.938h15v-51.938c0-4.143-3.357-7.5-7.5-7.5z"/><path d="m207.337 491.229c-.801-.671-19.606-16.768-19.606-46.167 0-4.143-3.358-7.5-7.5-7.5s-7.5 3.357-7.5 7.5c0 25.818 11.883 43.45 19.292 51.938h18.004c-.001-2.15-.918-4.285-2.69-5.771z"/><path d="m316.77 437.562c-4.143 0-7.5 3.357-7.5 7.5 0 29.344-18.734 45.436-19.601 46.163-1.788 1.481-2.714 3.62-2.715 5.775h18.024c7.408-8.488 19.291-26.12 19.291-51.938.001-4.143-3.357-7.5-7.499-7.5z"/></g><path d="m131.672 72.465c-80.406-28.43-98.943 47.482-96.197 88.824.723 10.877-2.69 21.777-8.111 31.935-11.363 21.289-6.297 47.842 12.986 62.352 11.905 8.959 28.996 16.366 53.483 18.434l37.84-15.768v-185.777z" fill="#e8a882"/><path d="m365.328 72.465c80.406-28.43 98.943 47.482 96.197 88.824-.723 10.877 2.69 21.777 8.111 31.935 11.363 21.289 6.297 47.842-12.986 62.352-11.905 8.959-28.996 16.366-53.483 18.434l-37.84-15.768v-185.777z" fill="#e8a882"/><path d="m363.068 347.973h-229.136s-8.822 10.311-15.565 27.85c19.071 13.04 43.262 26.545 73.555 38.646 18.09 7.226 37.125 10.89 56.578 10.89 19.452 0 38.487-3.664 56.577-10.89 30.293-12.101 54.484-25.606 73.555-38.646-6.743-17.538-15.564-27.85-15.564-27.85z" fill="#f1c6ad"/><path d="m417.401 274.613c-4.7-23.598-22.452-30.317-22.452-30.317h-292.898s-17.752 6.719-22.452 30.317c-3.512 17.631 2.233 35.855 14.716 48.792 16.466 17.064 49.715 45.013 106.881 67.848 30.395 12.141 64.212 12.141 94.608 0 57.166-22.835 90.415-50.785 106.881-67.848 12.483-12.937 18.228-31.161 14.716-48.792z" fill="#edb798"/><path d="m365.328 72.465c4.281-14.258 12.094-25.435 19.156-33.267 7.123-7.9 4.754-20.501-4.719-25.338-48.46-24.745-90.7-11.125-113.44.674-11.157 5.789-24.49 5.789-35.648 0-22.74-11.799-64.98-25.42-113.44-.674-9.473 4.837-11.842 17.438-4.719 25.338 7.062 7.832 14.874 19.009 19.156 33.267-28.422 27.623-45.926 65.285-45.926 106.807 0 84.736 72.867 143.305 162.753 143.305s162.753-58.569 162.753-143.305c-.001-41.522-17.505-79.185-45.926-106.807z" fill="#f5d5c4"/><path d="m132.6 177.915c0-70.124 36.871-131.626 92.276-166.209-23.708-10.894-63.032-20.626-107.64 2.153-9.473 4.837-11.842 17.438-4.719 25.338 7.062 7.832 14.874 19.009 19.156 33.268-28.422 27.623-45.926 65.285-45.926 106.807 0 63.907 41.451 112.922 100.386 133.162-33.18-35.081-53.533-82.421-53.533-134.519z" fill="#f1c6ad"/><ellipse cx="248.866" cy="298.392" fill="#5c586f" rx="72.888" ry="45.324"/><path d="m286.204 231.511c16.242 3.857 31.69 10.217 45.765 18.817 20.313 12.405 22.47 41.114 4.559 56.786l-.224.193c-11.54 10.095-28.373 11.815-41.45 3.816-13.474-8.233-29.37-12.731-45.989-12.731-16.781 0-32.789 4.569-46.325 12.935-5.638 3.491-11.988 5.18-18.318 5.18-8.447 0-16.863-3.002-23.559-8.772-18.054-15.56-16.049-44.31 4.203-56.878 14.298-8.874 30.052-15.418 46.66-19.346z" fill="#6a647f"/><path d="m286.204 231.511c-2.157 18.715-18.054 33.237-37.339 33.237s-35.181-14.522-37.338-33.237c12.07-2.87 24.597-4.356 37.338-4.356 12.722 0 25.249 1.486 37.339 4.356z" fill="#423e4f"/><g><g><path d="m161.646 229.383c-4.142 0-7.5-3.358-7.5-7.5v-16.69c0-4.142 3.358-7.5 7.5-7.5s7.5 3.358 7.5 7.5v16.69c0 4.142-3.358 7.5-7.5 7.5z" fill="#423e4f"/></g><g><path d="m335.354 229.383c-4.143 0-7.5-3.358-7.5-7.5v-16.69c0-4.142 3.357-7.5 7.5-7.5s7.5 3.358 7.5 7.5v16.69c0 4.142-3.358 7.5-7.5 7.5z" fill="#423e4f"/></g></g></g></svg>