<svg id="Capa_1" enable-background="new 0 0 497 497" height="512" viewBox="0 0 497 497" width="512" xmlns="http://www.w3.org/2000/svg"><g><path d="m73.505 397.322c1.436 1.793-36.332-3.282-45.201-46.006.057.106-1.166-8.317-9.722-9.711-6.407-1.044-12.447 3.304-13.491 9.711-11.188 68.682 47.008 98.521 47.105 98.624z" fill="#ffbe73"/><path d="m45.802 468.202c.079 1.182.164 2.371.256 3.568 1.091 14.23 12.956 25.228 27.227 25.228h261.605c8.264 0 14.964-6.699 14.964-14.964 0-18.745-15.196-33.941-33.941-33.941-1.555 0-2.815-1.26-2.815-2.815v-149.764h-105.606c-93.684 0-167.92 79.211-161.69 172.688z" fill="#ffbe73"/><path d="m45.268 26.414c5.425-8.874 13.961-15.721 24.308-18.976 93.057-29.231 146.279 37.123 146.279 37.123l-60.336 82.935z" fill="#ffbe73"/><path d="m155.52 127.496-52.127 71.635c-63.427-40.726-67.521-113.753-64.358-153.506.542-6.96 2.743-13.5 6.233-19.211 56.774 2.518 102.985 45.669 110.252 101.082z" fill="#ffdde3"/><path d="m486.345 26.414c-5.425-8.874-13.961-15.721-24.308-18.976-93.057-29.231-146.279 37.123-146.279 37.123l60.336 82.935z" fill="#ffbe73"/><path d="m376.093 127.496 52.127 71.635c63.427-40.725 67.521-113.752 64.358-153.505-.542-6.96-2.743-13.5-6.233-19.211-56.773 2.517-102.985 45.668-110.252 101.081z" fill="#ffdde3"/><path d="m124.824 318.149c8.077 8.589 17.115 16.443 27.066 23.42 32.408 22.731 71.798 34.747 113.912 34.747 16.252 0 32.097-1.798 47.296-5.304v-75.498h-105.606c-30.276 0-58.514 8.282-82.668 22.635z" fill="#ffa83f"/><path d="m166.246 321.102c-38.248-26.816-62.853-69.793-62.853-121.971 0-89.69 72.72-162.41 162.41-162.41 89.7 0 162.42 72.72 162.42 162.41 0 52.189-24.615 95.155-62.864 121.971z" fill="#ffca8a"/><path d="m365.359 321.102c-27.502 19.283-62.045 30.214-99.556 30.214-37.522 0-72.065-10.931-99.556-30.214 6.561-21.637 19.979-40.295 37.726-53.437 7.185-5.312 12.978-12.323 16.612-20.48 7.983-17.891 25.229-30.275 45.218-30.275 19.999 0 37.245 12.384 45.229 30.275 3.644 8.178 9.467 15.189 16.652 20.521 17.727 13.131 31.124 31.769 37.675 53.396z" fill="#ffe9d2"/><path d="m283.908 252.131c0 6.511-8.041 11.789-17.96 11.789s-17.96-5.278-17.96-11.789c0-10.247 35.92-10.247 35.92 0z" fill="#423e4f"/><path d="m177.917 222.649c-4.143 0-7.5 3.358-7.5 7.5v16.87c0 4.142 3.357 7.5 7.5 7.5s7.5-3.358 7.5-7.5v-16.87c0-4.142-3.357-7.5-7.5-7.5z" fill="#423e4f"/><path d="m353.5 222.649c-4.143 0-7.5 3.358-7.5 7.5v16.87c0 4.142 3.357 7.5 7.5 7.5s7.5-3.358 7.5-7.5v-16.87c0-4.142-3.357-7.5-7.5-7.5z" fill="#423e4f"/><path d="m298.649 271.85c-4.143 0-7.5 3.358-7.5 7.5 0 4.875-3.967 8.842-8.842 8.842s-8.842-3.967-8.842-8.842c0-4.142-3.357-7.5-7.5-7.5s-7.5 3.358-7.5 7.5c0 4.875-3.967 8.842-8.842 8.842-4.876 0-8.843-3.967-8.843-8.842 0-4.142-3.357-7.5-7.5-7.5s-7.5 3.358-7.5 7.5c0 13.146 10.696 23.842 23.843 23.842 6.321 0 12.071-2.477 16.342-6.506 4.271 4.029 10.021 6.506 16.342 6.506 13.146 0 23.842-10.696 23.842-23.842 0-4.142-3.358-7.5-7.5-7.5z" fill="#423e4f"/><g fill="#ffa83f"><path d="m204.018 497v-107.196c0-4.142-3.357-7.5-7.5-7.5s-7.5 3.358-7.5 7.5v107.196z"/><path d="m299.064 497v-4.73c0-21.268-16.102-38.845-36.756-41.178v-61.289c0-4.142-3.357-7.5-7.5-7.5s-7.5 3.358-7.5 7.5v68.525c0 4.142 3.357 7.5 7.5 7.5h2.815c14.579 0 26.44 11.861 26.44 26.441v4.731z"/><path d="m171.712 496.999v-4.729c0-21.068-15.805-38.515-36.18-41.108-.011-15.32-6.1-38.307-29.752-51.782-3.599-2.05-8.18-.796-10.229 2.804-2.051 3.599-.795 8.179 2.804 10.229 26.426 15.056 21.92 43.421 21.721 44.588-.394 2.187.203 4.435 1.628 6.139 1.425 1.705 3.532 2.689 5.754 2.689h2.814c14.579 0 26.44 11.861 26.44 26.441v4.729z"/><path d="m74.545 391.782c0-10.129.723-20.088 2.089-29.841-21.642 29.555-33.473 66.624-30.831 106.26.079 1.182.164 2.372.256 3.568 1.091 14.23 12.956 25.229 27.227 25.229h28.997c-17.65-31.046-27.738-66.951-27.738-105.216z"/></g><path d="m131.506 225.561c0-81.025 45.343-151.453 112.034-187.314-79.157 10.855-140.148 78.748-140.148 160.884 0 42.706 16.489 79.241 43.444 105.803-9.879-24.525-15.33-51.31-15.33-79.373z" fill="#ffbe73"/></g></svg>