<svg id="Capa_1" enable-background="new 0 0 497 497" height="512" viewBox="0 0 497 497" width="512" xmlns="http://www.w3.org/2000/svg"><g><path d="m97.955 396.413-40.307-26.121c-9.209-5.966-21.515-3.341-27.483 5.869-5.969 9.21-3.341 21.514 5.869 27.483l40.307 26.121c9.188 5.953 21.5 3.364 27.483-5.869 5.969-9.21 3.341-21.514-5.869-27.483z" fill="#4f4c5f"/><path d="m243.377 0c-9.768 0-18.339 6.205-21.735 15.364-14.171 38.232-74.081 59.214-11.816 131.393l56.608-77.818v-45.881c.001-12.735-10.322-23.058-23.057-23.058z" fill="#e8a882"/><path d="m408.72 0c9.768 0 18.339 6.205 21.734 15.364 14.171 38.232 74.081 59.214 11.816 131.393l-56.608-77.817v-45.882c0-12.735 10.324-23.058 23.058-23.058z" fill="#e8a882"/><path d="m219.563 260.383c-15.832 83.287-175.523 48.96-175.523 217.211 0 10.717 8.688 19.406 19.406 19.406h249.098v-148.212z" fill="#5c586f"/><path d="m192.438 300.956c2.955 7.394 6.522 14.555 10.698 21.396 12.604 20.686 30.368 37.992 51.373 50.049 17.779 10.206 37.617 16.458 58.035 18.38v-41.994l-92.981-88.405c-3.402 17.898-13.45 30.362-27.125 40.574z" fill="#4f4c5f"/><path d="m224.485 309.343c-10.989-18.004-17.308-39.157-17.308-61.781v-75.77c0-65.646 53.216-118.862 118.872-118.862 65.646 0 118.862 53.216 118.862 118.862v75.77c0 22.624-6.319 43.777-17.308 61.781z" fill="#6a647f"/><path d="m227.27 206.845c0-68.43 40.688-127.355 99.19-153.909-.137 0-.274-.005-.411-.005-65.656 0-118.872 53.216-118.872 118.862v75.77c0 22.624 6.319 43.777 17.308 61.781h37.436c-21.732-28.429-34.651-63.953-34.651-102.499z" fill="#5c586f"/><path d="m356.462 237.011c33.434 9.777 60.042 35.739 71.14 72.332-4.938 8.108-10.83 15.589-17.507 22.266-21.511 21.511-51.219 34.815-84.047 34.815-43.022 0-80.708-22.852-101.564-57.081 11.098-36.603 37.726-62.556 71.15-72.332z" fill="#e8a882"/><path d="m356.462 237.011c-1.182 15.768-14.347 28.178-30.413 28.178s-29.231-12.41-30.413-28.178c9.638-2.832 19.852-4.312 30.413-4.312 10.571-.001 20.775 1.48 30.413 4.312z" fill="#423e4f"/><path d="m277.383 145-13.976-4.078c-8.056-2.35-16.487 2.194-18.977 10.169-2.568 8.225 2.482 17.043 10.754 19.457l13.588 3.965c8.15 2.378 16.684-2.301 19.062-10.451 2.378-8.149-2.301-16.684-10.451-19.062z" fill="#e8a882"/><path d="m374.714 145 13.976-4.078c8.056-2.35 16.487 2.194 18.977 10.169 2.568 8.225-2.482 17.043-10.754 19.457l-13.588 3.965c-8.15 2.378-16.684-2.301-19.062-10.451-2.378-8.149 2.301-16.684 10.451-19.062z" fill="#e8a882"/><g><path d="m147.728 470.676c-4.143 0-7.5-3.358-7.5-7.5v-10.391c0-14.886-4.845-26.156-14.4-33.498-7.351-5.648-14.975-6.93-15.051-6.943-4.07-.657-6.871-4.481-6.24-8.556.633-4.076 4.413-6.879 8.489-6.274 1.106.164 11.104 1.823 21.271 9.372 9.549 7.09 20.931 20.808 20.931 45.899v10.391c0 4.142-3.357 7.5-7.5 7.5z" fill="#4f4c5f"/></g><path d="m147.728 452.785h-28.866c-13.595 0-24.616 11.021-24.616 24.616v19.599h58.5c10.824 0 19.598-8.774 19.598-19.598 0-13.596-11.021-24.617-24.616-24.617z" fill="#e8a882"/><path d="m317.041 452.785h-28.866c-13.595 0-24.616 11.021-24.616 24.616v19.599h58.5c10.824 0 19.598-8.774 19.598-19.598 0-13.596-11.021-24.617-24.616-24.617z" fill="#e3986d"/><path d="m217.177 389.953c-4.143 0-7.5 3.358-7.5 7.5v79.949c0 4.142 3.357 7.5 7.5 7.5s7.5-3.358 7.5-7.5v-79.949c0-4.142-3.357-7.5-7.5-7.5z" fill="#4f4c5f"/><path d="m263.558 389.953c-4.143 0-7.5 3.358-7.5 7.5v55.501c0 4.142 3.357 7.5 7.5 7.5s7.5-3.358 7.5-7.5v-55.501c0-4.142-3.357-7.5-7.5-7.5z" fill="#4f4c5f"/><path d="m260.659 452.785h-28.866c-13.595 0-24.616 11.021-24.616 24.616v19.599h58.5c10.824 0 19.598-8.774 19.598-19.598 0-13.596-11.021-24.617-24.616-24.617z" fill="#e8a882"/><g fill="#423e4f"><path d="m261.492 216.599v-13.812c0-4.142-3.357-7.5-7.5-7.5s-7.5 3.358-7.5 7.5v13.812c0 4.142 3.357 7.5 7.5 7.5s7.5-3.358 7.5-7.5z"/><path d="m397.744 195.288c-4.143 0-7.5 3.358-7.5 7.5v13.812c0 4.142 3.357 7.5 7.5 7.5s7.5-3.358 7.5-7.5v-13.812c0-4.143-3.358-7.5-7.5-7.5z"/><path d="m353.145 281.481c-4.143 0-7.5 3.358-7.5 7.5 0 3.327-2.707 6.034-6.034 6.034s-6.033-2.707-6.033-6.034c0-4.142-3.357-7.5-7.5-7.5s-7.5 3.358-7.5 7.5c0 3.327-2.707 6.034-6.034 6.034s-6.034-2.707-6.034-6.034c0-4.142-3.357-7.5-7.5-7.5s-7.5 3.358-7.5 7.5c0 11.598 9.436 21.034 21.034 21.034 5.153 0 9.873-1.87 13.534-4.957 3.661 3.087 8.381 4.957 13.533 4.957 11.599 0 21.034-9.436 21.034-21.034 0-4.142-3.357-7.5-7.5-7.5z"/></g><path d="m241.57 274.942c-7.358 9.994-13.184 21.536-17.084 34.401 20.855 34.229 58.542 57.081 101.563 57.081 4.288 0 8.522-.232 12.693-.675-43.468-15.723-78.634-48.772-97.172-90.807z" fill="#e3986d"/></g></svg>